<?xml version="1.0" encoding="utf-8"?>
<svg version="1.1" id="Layer_1" xmlns="http://www.w3.org/2000/svg" xmlns:xlink="http://www.w3.org/1999/xlink" x="0px" y="0px" xml:space="preserve" viewBox="-285 377 40 40">
<style type="text/css">path{fill:silver}</style>
<path d="M-258,388h-4.2c-0.4-1.2-1.5-2-2.8-2s-2.4,0.8-2.8,2h-4.2c-1.1,0-2,0.9-2,2v16c0,1.1,0.9,2,2,2h14c1.1,0,2-0.9,2-2v-16C-256,388.9-256.9,388-258,388L-258,388z M-265,388c0.6,0,1,0.4,1,1s-0.4,1-1,1s-1-0.4-1-1S-265.6,388-265,388L-265,388z M-258,406h-14v-16h2v3h10v-3h2V406L-258,406z"/>
</svg>
