<?xml version="1.0" encoding="utf-8"?>
<svg version="1.1" xmlns="http://www.w3.org/2000/svg" xmlns:xlink="http://www.w3.org/1999/xlink" xml:space="preserve" x="0px" y="0px" viewBox="-285 377 40 40">
<style type="text/css">path{fill:silver}</style>
<path d="M-256.6,396.9c-0.9,0-1.3,0.6-1.4,1.3c-0.5,2.3-2.7,5.9-7.1,5.9c-3.9,0-7.1-3.2-7.1-7.1s3.2-7.1,7.1-7.1c1.6,0,3.1,0.5,4.3,1.4h-1.4c-0.8,0-1.4,0.6-1.4,1.4s0.6,1.4,1.4,1.4h4.3c0.8,0,1.4-0.6,1.4-1.4v-4.3c0-0.8-0.6-1.4-1.4-1.4s-1.4,0.6-1.4,1.4v0.4c-1.6-1.1-3.6-1.8-5.7-1.8c-5.5,0-10,4.5-10,10s4.5,10,10,10c7.1,0,10-6.8,10-8.5C-255.2,397.4-256,396.9-256.6,396.9z"/>
</svg>
