<?xml version="1.0" encoding="utf-8"?>
<svg version="1.1" xmlns="http://www.w3.org/2000/svg" xmlns:xlink="http://www.w3.org/1999/xlink" x="0px" y="0px" viewBox="-29 31 40 40" style="enable-background:new -29 31 40 40;" xml:space="preserve">
	<style type="text/css">path{fill:silver}</style>
<path class="st0" d="M-9,44.7c-4.4,0-8.1,2.5-10,6.3c1.9,3.7,5.6,6.3,10,6.3s8.1-2.5,10-6.3C-0.9,47.2-4.6,44.7-9,44.7z M-4.1,48
	c1.2,0.7,2.2,1.8,2.9,2.9c-0.7,1.2-1.7,2.2-2.9,2.9c-1.5,0.9-3.2,1.4-4.9,1.4s-3.5-0.5-4.9-1.4c-1.2-0.7-2.2-1.8-2.9-2.9
	c0.7-1.2,1.7-2.2,2.9-2.9c0.1,0,0.2-0.1,0.2-0.1c-0.2,0.5-0.3,1.1-0.3,1.7c0,2.8,2.2,5,5,5s5-2.2,5-5c0-0.6-0.1-1.2-0.3-1.7
	C-4.2,47.9-4.1,48-4.1,48z M-9,49c0,1-0.8,1.9-1.9,1.9s-1.9-0.8-1.9-1.9s0.8-1.9,1.9-1.9S-9,47.9-9,49z"/>
</svg>
